<svg xmlns="http://www.w3.org/2000/svg" viewBox="0 0 200 60">
  <path fill="#60BB46" d="M38.866 15.5c-8.284 0-15 6.716-15 15s6.716 15 15 15c8.284 0 15-6.716 15-15s-6.716-15-15-15zm-3.5 23h-4v-16h4v16zm11-8.5c0 2.485-2.015 4.5-4.5 4.5h-2.5v-9h2.5c2.485 0 4.5 2.015 4.5 4.5z"/>
  <path fill="#262626" d="M65.866 20.5h4v16h-4v-2c-1.105 1.567-2.91 2.5-5 2.5-4.694 0-8.5-3.806-8.5-8.5s3.806-8.5 8.5-8.5c2.09 0 3.895.933 5 2.5v-2zm0 8c0-2.485-2.015-4.5-4.5-4.5s-4.5 2.015-4.5 4.5 2.015 4.5 4.5 4.5 4.5-2.015 4.5-4.5zm9-8h4v2c1.105-1.567 2.91-2.5 5-2.5 4.694 0 8.5 3.806 8.5 8.5s-3.806 8.5-8.5 8.5c-2.09 0-3.895-.933-5-2.5v2h-4v-16zm4 8c0 2.485 2.015 4.5 4.5 4.5s4.5-2.015 4.5-4.5-2.015-4.5-4.5-4.5-4.5 2.015-4.5 4.5zm18-8h4v2c1.105-1.567 2.91-2.5 5-2.5 4.694 0 8.5 3.806 8.5 8.5s-3.806 8.5-8.5 8.5c-2.09 0-3.895-.933-5-2.5v8.5h-4v-22.5zm4 8c0 2.485 2.015 4.5 4.5 4.5s4.5-2.015 4.5-4.5-2.015-4.5-4.5-4.5-4.5 2.015-4.5 4.5zm18-8h4v16h-4v-16zm0-5h4v3h-4v-3zm13 5h-4v16h4v-2c1.105 1.567 2.91 2.5 5 2.5 4.694 0 8.5-3.806 8.5-8.5s-3.806-8.5-8.5-8.5c-2.09 0-3.895.933-5 2.5v-2zm0 8c0 2.485 2.015 4.5 4.5 4.5s4.5-2.015 4.5-4.5-2.015-4.5-4.5-4.5-4.5 2.015-4.5 4.5z"/>
</svg>